<svg width="800px" height="800px" viewBox="0 0 104 65" fill="none" xmlns="http://www.w3.org/2000/svg">
<path d="M68.8607 1.07462C67.1637 -0.463381 64.5407 -0.335394 63.0027 1.36161L24.8297 43.4636L6.82468 28.6996C5.41068 27.5416 3.34467 27.4096 1.77667 28.5116C-0.111325 29.8376 -0.566331 32.4416 0.758669 34.3296L19.4717 60.9746C19.9827 61.6976 20.6447 62.3686 21.4167 62.8996C24.9267 65.3096 29.7257 64.4176 32.1357 60.9076L32.4417 60.4616L69.4937 6.4946C70.6527 4.8096 70.4167 2.48562 68.8607 1.07462Z" fill="#29ABE2"/>
<path d="M104.426 1.07462C102.729 -0.463381 100.106 -0.335394 98.5679 1.36161L60.3949 43.4636L54.1099 38.3106L46.7139 49.1236L55.0369 60.9746C55.5489 61.6976 56.2099 62.3686 56.9819 62.8996C60.4919 65.3096 65.2909 64.4176 67.7009 60.9076L68.0069 60.4616L105.059 6.4946C106.219 4.8096 105.983 2.48562 104.426 1.07462Z" fill="#29ABE2"/>
</svg>
