<svg width="800px" height="800px" viewBox="0 0 106 65" fill="none" xmlns="http://www.w3.org/2000/svg">
<path d="M68.8607 1.07462C67.1637 -0.463381 64.5407 -0.335394 63.0027 1.36161L24.8297 43.4636L6.82467 28.6996C5.41067 27.5416 3.34466 27.4096 1.77666 28.5116C-0.111335 29.8376 -0.566326 32.4416 0.758674 34.3296L19.4717 60.9746C19.9837 61.6976 20.6447 62.3686 21.4167 62.8996C24.9267 65.3096 29.7257 64.4176 32.1357 60.9076L32.4417 60.4616L69.4937 6.4946C70.6527 4.8096 70.4167 2.48562 68.8607 1.07462Z" fill="#B3B3B3"/>
<path d="M104.427 1.07462C102.73 -0.463381 100.107 -0.335394 98.5688 1.36161L60.3958 43.4636L54.1108 38.3106L46.7148 49.1236L55.0378 60.9746C55.5498 61.6976 56.2108 62.3686 56.9828 62.8996C60.4928 65.3096 65.2918 64.4176 67.7018 60.9076L68.0078 60.4616L105.06 6.4946C106.219 4.8096 105.983 2.48562 104.427 1.07462Z" fill="#B3B3B3"/>
</svg>
